<svg xmlns="http://www.w3.org/2000/svg" viewBox="0 0 413.08 455.45"><defs><style>.cls-1{fill:#231815;}</style></defs><title>light</title><g id="Layer_3" data-name="Layer 3"><circle class="cls-1" cx="204.23" cy="23.32" r="23.32"/><polygon class="cls-1" points="154.26 91.74 17.43 311.09 0 366.95 41 326.98 154.26 91.74"/><polygon class="cls-1" points="105.06 66.11 20.5 91.03 2.05 117.36 35.36 115.48 105.06 66.11"/><polygon class="cls-1" points="308.01 66.11 392.58 91.03 411.03 117.36 377.72 115.48 308.01 66.11"/><polygon class="cls-1" points="258.81 91.74 395.65 311.09 413.08 366.95 372.08 326.98 258.81 91.74"/><polyline class="cls-1" points="206.54 100.79 191.25 383.69 206.54 455.45"/><polyline class="cls-1" points="206.54 100.79 221.83 383.69 206.54 455.45"/><circle class="cls-1" cx="63.72" cy="152.73" r="12.3"/><circle class="cls-1" cx="154.26" cy="191.68" r="12.3"/><circle class="cls-1" cx="258.81" cy="191.68" r="12.3"/><circle class="cls-1" cx="345.09" cy="152.21" r="12.3"/></g></svg>