<?xml version="1.0" encoding="UTF-8"?>
<svg width="135px" height="40px" viewBox="0 0 135 40" version="1.1" xmlns="http://www.w3.org/2000/svg" xmlns:xlink="http://www.w3.org/1999/xlink">
    <title>app-store-badge</title>
    <g id="Page-1" stroke="none" stroke-width="1" fill="none" fill-rule="evenodd">
        <g id="app-store-badge">
            <path d="M130.197,40 L4.729,40 C2.122,40 0,37.872 0,35.267 L0,4.726 C0,2.12 2.122,0 4.729,0 L130.197,0 C132.803,0 135,2.12 135,4.726 L135,35.267 C135,37.872 132.803,40 130.197,40 L130.197,40 Z" id="Path" fill="#A6A6A6" fill-rule="nonzero"></path>
            <path d="M134.032,35.268 C134.032,37.384 132.318,39.098 130.198,39.098 L4.729,39.098 C2.61,39.098 0.89,37.384 0.89,35.268 L0.89,4.725 C0.89,2.61 2.61,0.89 4.729,0.89 L130.197,0.89 C132.318,0.89 134.032,2.61 134.032,4.725 L134.032,35.268 L134.032,35.268 Z" id="Path" fill="#000000" fill-rule="nonzero"></path>
            <g id="Group" transform="translate(12.000000, 6.000000)" fill="#FFFFFF" fill-rule="nonzero">
                <path d="M18.128,13.784 C18.099,10.561 20.767,8.993 20.889,8.92 C19.378,6.717 17.036,6.416 16.213,6.392 C14.246,6.185 12.338,7.569 11.336,7.569 C10.314,7.569 8.771,6.412 7.108,6.446 C4.968,6.479 2.966,7.718 1.868,9.642 C-0.398,13.565 1.292,19.33 3.463,22.501 C4.549,24.054 5.818,25.788 7.479,25.727 C9.104,25.66 9.711,24.691 11.672,24.691 C13.615,24.691 14.185,25.727 15.879,25.688 C17.623,25.66 18.721,24.128 19.769,22.561 C21.024,20.781 21.528,19.028 21.548,18.938 C21.507,18.924 18.161,17.647 18.128,13.784 Z" id="Path"></path>
                <path d="M14.928,4.306 C15.802,3.213 16.4,1.726 16.234,0.217 C14.969,0.273 13.387,1.092 12.476,2.161 C11.67,3.103 10.95,4.647 11.136,6.099 C12.557,6.205 14.016,5.382 14.928,4.306 Z" id="Path"></path>
            </g>
            <text id="TestFlight" font-family="GillSans, Gill Sans" font-size="18" font-weight="normal" fill="#FFFFFF">
                <tspan x="48" y="31">TestFlight</tspan>
            </text>
            <text id="TestFlight" font-family="GillSans, Gill Sans" font-size="18" font-weight="normal" fill="#FFFFFF">
                <tspan x="48" y="31">TestFlight</tspan>
            </text>
            <g id="Group" transform="translate(43.000000, 6.000000)" fill="#FFFFFF" fill-rule="nonzero">
                <path d="M6.05,4.009 C6.05,5.186 5.697,6.072 4.992,6.667 C4.339,7.216 3.411,7.491 2.209,7.491 C1.613,7.491 1.103,7.465 0.676,7.413 L0.676,0.982 C1.233,0.892 1.833,0.846 2.481,0.846 C3.626,0.846 4.489,1.095 5.071,1.593 C5.723,2.156 6.05,2.961 6.05,4.009 Z M4.945,4.038 C4.945,3.275 4.743,2.69 4.339,2.282 C3.935,1.875 3.345,1.671 2.568,1.671 C2.238,1.671 1.957,1.693 1.724,1.739 L1.724,6.628 C1.853,6.648 2.089,6.657 2.432,6.657 C3.234,6.657 3.853,6.434 4.289,5.988 C4.725,5.542 4.945,4.892 4.945,4.038 Z" id="Shape"></path>
                <path d="M11.909,5.037 C11.909,5.762 11.702,6.356 11.288,6.822 C10.854,7.301 10.279,7.54 9.561,7.54 C8.869,7.54 8.318,7.311 7.907,6.851 C7.497,6.392 7.292,5.813 7.292,5.115 C7.292,4.385 7.503,3.786 7.927,3.321 C8.351,2.856 8.921,2.623 9.639,2.623 C10.331,2.623 10.887,2.852 11.308,3.311 C11.708,3.757 11.909,4.333 11.909,5.037 Z M10.822,5.071 C10.822,4.636 10.728,4.263 10.541,3.952 C10.321,3.576 10.008,3.388 9.601,3.388 C9.18,3.388 8.86,3.576 8.64,3.952 C8.452,4.263 8.359,4.642 8.359,5.09 C8.359,5.525 8.453,5.898 8.64,6.209 C8.867,6.585 9.183,6.773 9.591,6.773 C9.991,6.773 10.305,6.582 10.531,6.199 C10.725,5.882 10.822,5.506 10.822,5.071 Z" id="Shape"></path>
                <path d="M19.765,2.719 L18.29,7.433 L17.33,7.433 L16.719,5.386 C16.564,4.875 16.438,4.367 16.34,3.863 L16.321,3.863 C16.23,4.381 16.104,4.888 15.942,5.386 L15.293,7.433 L14.322,7.433 L12.935,2.719 L14.012,2.719 L14.545,4.96 C14.674,5.49 14.78,5.995 14.865,6.473 L14.884,6.473 C14.962,6.079 15.091,5.577 15.273,4.97 L15.942,2.72 L16.796,2.72 L17.437,4.922 C17.592,5.459 17.718,5.976 17.815,6.474 L17.844,6.474 C17.915,5.989 18.022,5.472 18.164,4.922 L18.736,2.72 L19.765,2.72 L19.765,2.719 Z" id="Path"></path>
                <path d="M25.198,7.433 L24.15,7.433 L24.15,4.733 C24.15,3.901 23.834,3.485 23.2,3.485 C22.889,3.485 22.638,3.599 22.443,3.828 C22.25,4.057 22.152,4.327 22.152,4.636 L22.152,7.432 L21.104,7.432 L21.104,4.066 C21.104,3.652 21.091,3.203 21.066,2.717 L21.987,2.717 L22.036,3.454 L22.065,3.454 C22.187,3.225 22.369,3.036 22.608,2.885 C22.892,2.709 23.21,2.62 23.558,2.62 C23.998,2.62 24.364,2.762 24.655,3.047 C25.017,3.396 25.198,3.917 25.198,4.609 L25.198,7.433 L25.198,7.433 Z" id="Path"></path>
                <polygon id="Path" points="28.088 7.433 27.041 7.433 27.041 0.556 28.088 0.556"></polygon>
                <path d="M34.258,5.037 C34.258,5.762 34.051,6.356 33.637,6.822 C33.203,7.301 32.627,7.54 31.91,7.54 C31.217,7.54 30.666,7.311 30.256,6.851 C29.846,6.392 29.641,5.813 29.641,5.115 C29.641,4.385 29.852,3.786 30.276,3.321 C30.7,2.856 31.27,2.623 31.987,2.623 C32.68,2.623 33.235,2.852 33.657,3.311 C34.057,3.757 34.258,4.333 34.258,5.037 Z M33.17,5.071 C33.17,4.636 33.076,4.263 32.889,3.952 C32.67,3.576 32.356,3.388 31.95,3.388 C31.528,3.388 31.208,3.576 30.989,3.952 C30.801,4.263 30.708,4.642 30.708,5.09 C30.708,5.525 30.802,5.898 30.989,6.209 C31.216,6.585 31.532,6.773 31.94,6.773 C32.34,6.773 32.653,6.582 32.879,6.199 C33.074,5.882 33.17,5.506 33.17,5.071 Z" id="Shape"></path>
                <path d="M39.33,7.433 L38.389,7.433 L38.311,6.89 L38.282,6.89 C37.96,7.323 37.501,7.54 36.905,7.54 C36.46,7.54 36.1,7.397 35.829,7.113 C35.583,6.855 35.46,6.534 35.46,6.153 C35.46,5.577 35.7,5.138 36.183,4.834 C36.665,4.53 37.343,4.381 38.216,4.388 L38.216,4.3 C38.216,3.679 37.89,3.369 37.237,3.369 C36.772,3.369 36.362,3.486 36.008,3.718 L35.795,3.03 C36.233,2.759 36.774,2.623 37.412,2.623 C38.644,2.623 39.262,3.273 39.262,4.573 L39.262,6.309 C39.262,6.78 39.285,7.155 39.33,7.433 Z M38.242,5.813 L38.242,5.086 C37.086,5.066 36.508,5.383 36.508,6.036 C36.508,6.282 36.574,6.466 36.709,6.589 C36.844,6.712 37.016,6.773 37.221,6.773 C37.451,6.773 37.666,6.7 37.862,6.555 C38.059,6.409 38.18,6.224 38.225,5.997 C38.236,5.946 38.242,5.884 38.242,5.813 Z" id="Shape"></path>
                <path d="M45.285,7.433 L44.355,7.433 L44.306,6.676 L44.277,6.676 C43.98,7.252 43.474,7.54 42.763,7.54 C42.195,7.54 41.722,7.317 41.347,6.871 C40.972,6.425 40.785,5.846 40.785,5.135 C40.785,4.372 40.988,3.754 41.396,3.282 C41.791,2.842 42.275,2.622 42.851,2.622 C43.484,2.622 43.927,2.835 44.179,3.262 L44.199,3.262 L44.199,0.556 L45.248,0.556 L45.248,6.163 C45.248,6.622 45.26,7.045 45.285,7.433 Z M44.199,5.445 L44.199,4.659 C44.199,4.523 44.189,4.413 44.17,4.329 C44.111,4.077 43.984,3.865 43.791,3.694 C43.596,3.523 43.361,3.437 43.09,3.437 C42.699,3.437 42.393,3.592 42.168,3.903 C41.945,4.214 41.832,4.611 41.832,5.096 C41.832,5.562 41.939,5.94 42.154,6.231 C42.381,6.541 42.687,6.696 43.07,6.696 C43.414,6.696 43.689,6.567 43.898,6.308 C44.1,6.069 44.199,5.781 44.199,5.445 Z" id="Shape"></path>
                <path d="M54.248,5.037 C54.248,5.762 54.041,6.356 53.627,6.822 C53.193,7.301 52.619,7.54 51.9,7.54 C51.209,7.54 50.658,7.311 50.246,6.851 C49.836,6.392 49.631,5.813 49.631,5.115 C49.631,4.385 49.842,3.786 50.266,3.321 C50.69,2.856 51.26,2.623 51.979,2.623 C52.67,2.623 53.227,2.852 53.647,3.311 C54.047,3.757 54.248,4.333 54.248,5.037 Z M53.162,5.071 C53.162,4.636 53.068,4.263 52.881,3.952 C52.66,3.576 52.348,3.388 51.94,3.388 C51.52,3.388 51.2,3.576 50.979,3.952 C50.791,4.263 50.698,4.642 50.698,5.09 C50.698,5.525 50.792,5.898 50.979,6.209 C51.206,6.585 51.522,6.773 51.93,6.773 C52.33,6.773 52.645,6.582 52.871,6.199 C53.064,5.882 53.162,5.506 53.162,5.071 Z" id="Shape"></path>
                <path d="M59.883,7.433 L58.836,7.433 L58.836,4.733 C58.836,3.901 58.52,3.485 57.885,3.485 C57.574,3.485 57.323,3.599 57.129,3.828 C56.935,4.057 56.838,4.327 56.838,4.636 L56.838,7.432 L55.789,7.432 L55.789,4.066 C55.789,3.652 55.777,3.203 55.752,2.717 L56.672,2.717 L56.721,3.454 L56.75,3.454 C56.873,3.225 57.055,3.036 57.293,2.885 C57.578,2.709 57.895,2.62 58.244,2.62 C58.683,2.62 59.049,2.762 59.34,3.047 C59.703,3.396 59.883,3.917 59.883,4.609 L59.883,7.433 L59.883,7.433 Z" id="Path"></path>
                <path d="M66.936,3.504 L65.782,3.504 L65.782,5.794 C65.782,6.376 65.987,6.667 66.393,6.667 C66.581,6.667 66.737,6.651 66.86,6.618 L66.887,7.413 C66.68,7.491 66.408,7.53 66.073,7.53 C65.659,7.53 65.337,7.404 65.104,7.152 C64.87,6.9 64.754,6.476 64.754,5.881 L64.754,3.504 L64.065,3.504 L64.065,2.719 L64.754,2.719 L64.754,1.855 L65.781,1.545 L65.781,2.718 L66.935,2.718 L66.935,3.504 L66.936,3.504 Z" id="Path"></path>
                <path d="M72.484,7.433 L71.435,7.433 L71.435,4.753 C71.435,3.908 71.119,3.485 70.486,3.485 C70,3.485 69.668,3.73 69.486,4.22 C69.455,4.323 69.437,4.449 69.437,4.597 L69.437,7.432 L68.39,7.432 L68.39,0.556 L69.437,0.556 L69.437,3.397 L69.457,3.397 C69.787,2.88 70.26,2.622 70.873,2.622 C71.307,2.622 71.666,2.764 71.951,3.049 C72.306,3.404 72.484,3.932 72.484,4.63 L72.484,7.433 L72.484,7.433 Z" id="Path"></path>
                <path d="M78.207,4.853 C78.207,5.041 78.193,5.199 78.168,5.328 L75.025,5.328 C75.039,5.794 75.189,6.149 75.48,6.395 C75.746,6.615 76.089,6.725 76.509,6.725 C76.974,6.725 77.398,6.651 77.78,6.502 L77.944,7.23 C77.497,7.424 76.971,7.521 76.362,7.521 C75.632,7.521 75.057,7.306 74.641,6.876 C74.223,6.446 74.016,5.869 74.016,5.145 C74.016,4.434 74.209,3.842 74.598,3.37 C75.004,2.866 75.553,2.614 76.246,2.614 C76.924,2.614 77.439,2.866 77.787,3.37 C78.068,3.77 78.207,4.265 78.207,4.853 Z M77.207,4.582 C77.215,4.271 77.146,4.003 77.004,3.777 C76.822,3.486 76.545,3.34 76.17,3.34 C75.828,3.34 75.549,3.482 75.336,3.767 C75.162,3.994 75.059,4.265 75.025,4.582 L77.207,4.582 Z" id="Shape"></path>
            </g>
        </g>
    </g>
</svg>