<?xml version="1.0" encoding="UTF-8"?>
<svg width="132px" height="40px" viewBox="0 0 132 40" version="1.1" xmlns="http://www.w3.org/2000/svg" xmlns:xlink="http://www.w3.org/1999/xlink">
    <title>apk-en</title>
    <g id="Page-1" stroke="none" stroke-width="1" fill="none" fill-rule="evenodd">
        <g id="apk-en" fill="#000000" fill-rule="nonzero">
            <path d="M8.477,39.9981 C8.13507,39.9981 7.8023,39.9933 7.46444,39.9867 C6.76345,39.978 6.06411,39.9208 5.37216,39.8156 C4.72675,39.712 4.10148,39.5191 3.51699,39.2433 C2.93791,38.9694 2.40979,38.6102 1.95286,38.1795 C1.48958,37.7542 1.10389,37.261 0.811065,36.7193 C0.514953,36.1741 0.310063,35.5896 0.203529,34.9863 C0.0881055,34.3383 0.02551,33.683 0.0162824,33.0261 C0.0101765,32.8056 0,32.0707 0,32.0707 L0,7.91596 C0,7.91596 0.0101765,7.19348 0.0162824,6.98054 C0.0254412,6.3246 0.0875177,5.66961 0.202512,5.02222 C0.309118,4.41745 0.513993,3.83143 0.810047,3.28446 C1.40556,2.19635 2.35263,1.31097 3.51699,0.753856 C4.09967,0.478549 4.72332,0.286595 5.36707,0.184424 C6.06132,0.0785038 6.76308,0.0213056 7.46648,0.0133089 L8.477,0 L123.517,0 L124.54,0.0123583 C125.237,0.020914 125.932,0.0770017 126.62,0.183473 C127.27,0.286032 127.901,0.478928 128.49,0.755757 C129.652,1.31514 130.597,2.20001 131.193,3.28636 C131.485,3.82917 131.687,4.41096 131.793,5.01081 C131.908,5.66295 131.974,6.32269 131.987,6.98434 C131.99,7.27999 131.99,7.59845 131.99,7.91501 C132,8.30668 132,8.68028 132,9.05578 L132,30.9414 C132,31.3216 132,31.6924 131.99,32.066 C131.99,32.4063 131.99,32.7172 131.986,33.0385 C131.973,33.6881 131.909,34.3359 131.794,34.9768 C131.69,35.5844 131.486,36.1734 131.19,36.7231 C130.895,37.2589 130.511,37.7478 130.053,38.1719 C129.595,38.6044 129.066,38.9655 128.486,39.2414 C127.898,39.5192 127.269,39.7128 126.62,39.8156 C125.928,39.9211 125.229,39.9781 124.527,39.9867 C124.2,39.9933 123.856,39.9971 123.523,39.9971 L122.309,40 L8.477,39.9981 Z" id="Path"></path>
        </g>
        <text id="Use" font-family="GillSans, Gill Sans" font-size="12" font-weight="normal" fill="#FFFFFF">
            <tspan x="38" y="17">Use</tspan>
        </text>
        <text id="Web-Browser" font-family="GillSans, Gill Sans" font-size="15" font-weight="normal" fill="#FFFFFF">
            <tspan x="38" y="31">Web Browser</tspan>
        </text>
        <g id="Group-13" transform="translate(4.102000, 6.781000)">
            <path d="M26.898,13.219 C26.898,6.0393205 21.0777323,0.219 13.898,0.219 C6.71826766,0.219 0.898,6.0393205 0.898,13.219 C0.898,20.3987323 6.71826766,26.219 13.898,26.219 C21.0777323,26.219 26.898,20.3987323 26.898,13.219" id="Fill-148" fill="#28B6C5"></path>
            <path d="M2.46362069,8.60522561 C2.60698077,8.82839104 2.39302671,9.40507883 2.46362069,9.65941657 C2.53388885,9.91266436 2.78460608,10.417743 3.00637979,10.5653755 C3.09869499,10.6266302 3.35668884,10.6954055 3.44764647,10.6318074 C3.51319026,10.5859754 3.52003245,10.3983966 3.50412165,10.3210653 C3.45671508,10.0915782 3.06627606,9.75467741 2.98378971,9.53489081 C2.91596519,9.35423308 2.75229576,8.9158588 2.88197147,8.77116913 C2.93252762,8.71498267 3.12921331,8.72255776 3.1875348,8.77116913 C3.34229853,8.90016365 3.24134914,9.3723261 3.31677609,9.55728909 C3.44042416,9.85969323 4.05328851,10.3065146 4.06963373,10.6318074 C4.07468392,10.7306651 3.87099313,10.8798235 3.87490295,10.9787902 C3.88326562,11.1925821 4.17492737,11.5711186 4.35298711,11.6949359 C4.60245537,11.868291 5.30014111,12.1672619 5.54108379,11.9825714 C5.57887872,11.9536334 5.50480934,11.8252929 5.54108379,11.7945565 C5.6316613,11.7174977 5.94374099,11.767199 6.01634418,11.8608794 C6.0681493,11.9274748 5.92147673,12.1251901 5.97181567,12.19293 C6.02763922,12.2678089 6.25223668,12.239198 6.3447148,12.2597979 C6.49051852,12.2923326 6.92179343,12.414297 6.92179343,12.414297 C6.92179343,12.414297 7.46015398,13.1881006 7.73655657,13.3230898 C7.96989682,13.4371521 8.58868021,13.2231967 8.77722044,13.3997127 C8.93154974,13.5444568 8.96619509,14.039726 8.87882146,14.2306837 C8.79014456,14.4246932 8.27122451,14.5315074 8.16663681,14.7179418 C8.07524476,14.8806155 8.15783972,15.2756647 8.13307752,15.4599737 C8.11770975,15.5751259 8.03125928,15.9138251 8.03125928,15.9138251 C8.03125928,15.9138251 8.88989929,16.8089392 9.06057381,17.1765218 C9.10678572,17.2764149 9.06448363,17.5275373 9.1401821,17.6083019 C9.2130025,17.6857967 9.51362425,17.7075411 9.5587501,17.7075411 C9.60387594,17.7075411 10.3959404,18.2951283 10.3959404,18.2951283 C10.3959404,18.2951283 10.043948,20.1217059 10.3959404,20.5763203 C10.4403603,20.6334877 10.6398154,20.5931599 10.6787507,20.6539241 C10.8237942,20.8803049 10.4232005,21.4457663 10.4862464,21.7056082 C10.5319696,21.8943315 10.9615068,22.3261661 10.9615068,22.3261661 C10.9615068,22.3261661 10.8158117,23.1135395 10.8736987,23.3692397 C10.9420663,23.6726793 11.3010638,24.2088757 11.5019852,24.4494802 C11.671465,24.6523727 12.0589174,25.044261 12.3087114,25.1384864 C12.4976861,25.2096596 12.9547007,25.2698243 13.1185873,25.1535821 C13.173542,25.1143442 13.2172017,24.962461 13.1978155,24.8986449 C13.1425349,24.7159708 12.6721618,24.5855594 12.6023824,24.4077355 C12.5800095,24.3504046 12.6220944,24.2239714 12.6368648,24.1642972 C12.6560338,24.0872928 12.7276052,23.9428756 12.7440591,23.8654353 C12.759807,23.7908289 12.8188344,23.6175827 12.7665948,23.5611783 C12.6989875,23.4878253 12.3975512,23.5590529 12.3641549,23.5499519 C12.2854697,23.528807 12.155251,23.3797031 12.160627,23.2998104 C12.168338,23.1864021 12.4403421,23.0846016 12.4954054,22.9844905 L12.5404226,22.7463384 L12.1669804,22.6414861 C12.1890275,22.4203915 12.1890275,22.4203915 12.1890275,22.4203915 C12.7213604,22.3416433 12.7213604,22.3416433 12.7213604,22.3416433 C12.7213604,22.3416433 13.3681642,22.1122107 13.5309647,21.9606544 C13.5309647,21.9606544 13.8138837,21.4555757 13.8020456,21.4732873 L14.4588955,20.6511993 C14.6515084,20.4103223 14.6515084,20.4103223 14.6515084,20.4103223 L14.4588955,19.5816946 L14.4588955,19.5773894 C14.4923461,19.454553 14.7184098,19.1363992 14.7184098,19.1363992 L15.4995593,19.1592335 L16.0251044,18.752086 C16.2234191,18.3988361 16.0403092,17.5220876 16.1951272,17.1485103 C16.2837498,16.9348274 16.6776099,16.6325867 16.7777991,16.4238085 C16.8295499,16.3159044 16.9413056,16.0611851 16.8802147,15.9581857 C16.8104352,15.8398726 16.4583885,15.8758407 16.3489135,15.7913702 C16.3489135,15.7913702 16.0629536,15.288526 15.9973012,15.2277617 C15.9973012,15.2277617 15.092938,15.2707599 14.7981267,15.2163719 C14.7089611,15.1997503 14.5437711,15.121438 14.4588955,15.0897752 C14.3058694,15.0328258 14.4588955,15.0897752 13.8472258,14.861814 C13.8472258,14.861814 13.8511356,14.3571714 13.8020456,14.197822 C13.7559966,14.0481186 13.4846985,13.6550314 13.4846985,13.6550314 C12.6254069,13.6433145 13.4846985,13.6550314 12.6254069,13.6433145 C12.3940215,13.6400992 12.2999143,13.0304407 12.1271763,12.8796473 C12.0354584,12.7998636 11.7930496,12.6104319 11.6858553,12.6691797 C11.6338873,12.6977907 11.7063276,12.8612818 11.6633195,12.9017186 C11.5184933,13.0383427 11.0417667,13.032675 10.8602316,12.9480411 C10.7464667,12.895288 10.6717456,12.6147371 10.5659633,12.5475968 C10.3864917,12.4341339 9.93045455,12.313423 9.72839286,12.3808903 C9.47870738,12.4642163 9.28658315,13.0745288 9.03847246,13.161724 C8.77917535,13.2530066 7.95154239,12.9813933 7.95154239,12.9813933 C7.95154239,12.9813933 8.07801422,12.0062776 7.87280295,11.7833301 C7.73829426,11.6370056 7.16843794,11.8274183 7.07965243,11.6507933 C7.0046599,11.5016349 7.37815636,11.2283867 7.39754255,11.0631516 C7.40780583,10.9765013 7.38972291,10.7563332 7.30642202,10.7253789 C7.013457,10.6169843 6.56958377,11.3359638 6.2649436,11.4069735 C6.10453236,11.444304 5.74319978,11.4241946 5.60988577,11.3288247 C5.49633807,11.2474606 5.38729752,10.9650569 5.37562236,10.8277788 C5.36443593,10.6943701 5.46766605,10.4351821 5.51865662,10.3108743 C5.58903339,10.1388271 5.88047792,9.65941657 5.88047792,9.65941657 C5.88047792,9.65941657 6.48525112,9.30011751 6.71174919,9.24730987 C7.10245972,9.15591831 8.03544062,8.96741301 8.31808805,9.2466559 C8.40421271,9.3316713 8.31347229,9.72590297 8.31347229,9.72590297 C8.31347229,9.72590297 8.75919182,10.07621 8.89103965,9.98906923 C9.06464654,9.87397146 8.77081267,9.3613722 8.84537078,9.16970607 C8.89788184,9.03466238 9.14686137,8.8511708 9.26100641,8.75988824 C9.45568289,8.60446266 10.1010748,8.22020395 10.1010748,8.22020395 C10.1010748,8.22020395 10.1148134,7.92684632 10.1578758,7.84052299 C10.2907554,7.57501336 10.7559697,7.16797489 10.9955005,6.98775314 C11.1972364,6.83608785 11.8627204,6.75352482 11.8859621,6.50545424 C11.8884057,6.48076708 11.8082001,6.46697932 11.8073313,6.44212867 C11.8005434,6.23950863 12.2096626,5.93655952 12.4104211,5.88685821 C12.4657559,5.87301596 12.5833763,5.91334378 12.6312173,5.94397112 C12.6652653,5.96571545 12.6918738,6.06691647 12.7324925,6.0681699 C12.8179112,6.07073126 12.8920892,5.8687107 12.9613799,5.81982684 C12.9739239,5.81105282 13.0195385,5.81050785 13.017475,5.79563015 C13.0088408,5.73426647 12.8281745,5.77530275 12.7665948,5.76135151 C12.7013226,5.74625582 12.5513918,5.73148712 12.5122393,5.678298 C12.4762907,5.62957764 12.4859023,5.49197258 12.5122393,5.43758453 C12.5309196,5.39905511 12.6064008,5.34363161 12.6473453,5.32946238 C12.7174506,5.3050477 12.8718885,5.31463918 12.944546,5.32946238 C12.9810376,5.33681948 13.0540753,5.36259658 13.0810096,5.38771972 C13.1290135,5.4324618 13.1401456,5.59061224 13.1989558,5.62064012 C13.2316463,5.63698924 13.3197801,5.62625332 13.3437278,5.59905929 L13.3437278,5.57862289 C13.3524706,5.57235573 13.3743004,5.5914297 13.3852696,5.59224716 C13.4903461,5.60102118 13.7230347,5.59747887 13.8020456,5.52919407 C13.8419584,5.49491542 13.8148611,5.35534848 13.8609101,5.32946238 C13.9140185,5.2995435 14.0609626,5.34047078 14.0985946,5.38771972 C14.1326427,5.43033642 14.1243886,5.5563881 14.0985946,5.60412751 C14.0675876,5.66227587 13.8578149,5.69034185 13.8777984,5.75295896 L13.8790474,5.75295896 C13.9248791,5.79241482 13.8712277,5.94473408 13.9106517,5.99034811 C14.0030756,6.09765281 14.3217802,6.1144379 14.4588955,6.15580116 C14.5109721,6.17149631 14.6309819,6.17896241 14.6675821,6.21863626 L14.6686139,6.22741029 C14.7022275,6.2548768 14.8127342,6.24403189 14.8428181,6.21291407 C14.8994019,6.15482021 14.8975556,5.96048373 14.854276,5.89225342 C14.7971492,5.80173382 14.5175971,5.80522163 14.4588955,5.71573747 C14.4140954,5.64761616 14.4105657,5.45763944 14.4588955,5.39158901 C14.4988082,5.33703747 14.6773024,5.35872729 14.7184098,5.3050477 C14.7900355,5.21180324 14.7961718,4.94204284 14.7404568,4.8392614 C14.7017387,4.76792476 14.5291636,4.71320972 14.4588955,4.6711925 C14.3993793,4.63576941 14.2566166,4.587921 14.221211,4.52944567 C14.1192841,4.36006883 14.1870543,3.74359819 14.1870543,3.74359819 C14.1870543,3.74359819 13.6676455,4.04262351 13.4743266,4.08665713 C13.4106835,4.10109885 13.2568429,4.13423305 13.213509,4.08665713 C13.1109306,3.9745022 13.3703363,3.61133385 13.2816051,3.48833401 C13.1379735,3.2888748 12.5549215,3.21405035 12.3110465,3.26424213 C12.1878871,3.28969226 11.9656247,3.45073104 11.9096925,3.56076059 C11.8066253,3.76338062 12.046319,4.28350048 11.9096925,4.46628359 C11.7978825,4.6157145 11.3311477,4.56873804 11.1881678,4.69026647 C11.0620761,4.79724418 11.0329153,5.18199336 10.8990583,5.27981556 C10.8354151,5.32641054 10.6460603,5.37981765 10.585621,5.32946238 C10.4388398,5.207062 10.7124186,4.71664304 10.585621,4.57446023 C10.473105,4.44791808 9.90683272,4.4826327 9.90683272,4.4826327 L9.56749289,4.26622491 C9.56749289,4.26622491 9.38221084,3.89422804 9.4311379,3.77684139 C9.56401749,3.45819714 10.3225227,3.21939106 10.6445941,3.08151352 C10.7869224,3.02058582 11.1077449,2.82341549 11.2389954,2.90461609 C11.3243055,2.95747823 11.2203695,3.23268834 11.2984573,3.29514196 C11.3626978,3.34647818 11.569158,3.3332354 11.6298146,3.27792089 C11.6669035,3.24429621 11.6197685,3.11688211 11.6552827,3.08151352 C11.7165365,3.02058582 11.9411883,3.09535577 12.000976,3.03317464 C12.0130313,3.02064031 12.0159636,2.97933155 12.0067864,2.96467184 C11.985934,2.93121065 11.8836271,2.93551592 11.8588106,2.90461609 C11.8254685,2.86336183 11.7915834,2.73850908 11.8246539,2.69703683 C11.8903063,2.61474628 12.1533504,2.7067373 12.2496297,2.66199522 C12.3335279,2.62297533 12.4469127,2.46923915 12.5069176,2.40013689 C12.5108274,2.39577713 12.5156061,2.38258884 12.5215794,2.38133541 L12.5242946,2.38275233 C12.5519891,2.37850156 12.5772401,2.31582995 12.6023824,2.30356812 C12.8039011,2.20476496 13.2807362,2.130104 13.4968081,2.19277561 C13.6211078,2.22907065 13.9061989,2.39550464 13.8921887,2.52171981 C13.8607472,2.80733886 12.817694,2.77709299 12.8555433,3.06200358 C12.89904,3.39083878 13.8752462,3.52130472 14.1749991,3.36664209 C14.2795867,3.31274451 14.2479824,3.00031291 14.345565,2.93486196 C14.3688067,2.9192758 14.4306036,2.93486196 14.4588955,2.93486196 C14.5747782,2.93486196 14.8230518,2.99339179 14.9226436,2.93486196 C15.0158277,2.88009242 15.1710801,2.65567356 15.1264973,2.55828733 C15.0838151,2.46438892 14.7830304,2.54003082 14.7184098,2.45893921 C14.6434173,2.36504079 14.7847138,2.08247358 14.7184098,1.98258049 C14.6796917,1.92437764 14.5237876,1.89811006 14.4588955,1.87004408 C14.2043227,1.75979654 13.715921,1.46976324 13.4405501,1.42872696 C13.2209486,1.39602873 12.7697444,1.46431353 12.5573108,1.52829307 C12.4230194,1.56872988 12.1289683,1.66382724 12.0594604,1.78317578 C11.9809925,1.91816497 12.2110202,2.29904486 12.093617,2.40329772 C11.9960887,2.48978454 11.6696187,2.41310719 11.5730679,2.32558493 C11.5071439,2.26569267 11.4653306,2.06656044 11.4921563,1.98258049 C11.5426581,1.8252475 12.0485998,1.69478156 11.9917445,1.53941047 C11.9154487,1.33052327 11.3113271,1.46850981 11.0864038,1.49559484 C11.0189051,1.5036604 10.8757079,1.52709414 10.8260749,1.57276266 C10.7668846,1.62731421 10.6721258,1.80257673 10.7127988,1.871461 C10.7559154,1.94432356 11.0035374,1.85805473 11.0523558,1.92742947 C11.1013372,1.9971857 11.0494777,2.20383851 10.9841512,2.25931651 C10.8752192,2.35207049 10.5249645,2.21037816 10.4075069,2.2927777 C10.3581998,2.32743783 10.3662909,2.47964809 10.3161149,2.51365425 C10.1444086,2.63044143 9.63357972,2.6754015 9.48033648,2.53627053 C9.39328867,2.45752229 9.45573719,2.07914926 9.42369838,2.07217364 L9.42299244,2.07151967 L9.42369838,2.07217364 C9.45872386,2.07773234 9.93767686,2.11800566 10.0792449,2.06029328 C10.239982,1.99456984 10.6046271,1.75222145 10.5776927,1.58377107 C10.5658547,1.51020005 10.3803554,1.43940838 10.3052,1.45079826 C10.1807917,1.46976324 10.0618137,1.751404 9.94392171,1.79456566 C9.80300527,1.84595638 9.47523199,1.83195064 9.34322125,1.76148595 C9.20800662,1.68927736 9.11840657,1.34218564 8.98134564,1.27373735 C8.80980227,1.18823147 8.39438385,1.21444455 8.21181696,1.27373735 C7.97364373,1.35101416 7.32901209,1.62775019 7.40807735,1.86061609 C7.46596441,2.03162783 7.99645102,1.75391086 8.14475268,1.86061609 C8.19004143,1.89342331 8.22604436,2.01811256 8.21181696,2.07151967 C8.19492871,2.1339188 7.9961795,2.18814336 8.01974703,2.2484171 C8.09213301,2.43474252 8.66611637,2.15816999 8.83429295,2.2706519 C8.90021687,2.31479451 9.00399002,2.49403531 8.95853836,2.55828733 C8.82837392,2.74319583 8.21632411,2.67087824 8.04168547,2.52526212 C7.99780859,2.48858561 8.03712401,2.34389594 7.99661393,2.30356812 C7.89316659,2.20073218 7.55822531,2.23250396 7.42013263,2.18176721 C7.33840652,2.15173933 7.19895626,2.03713204 7.11429778,2.01598718 C6.96990594,1.98007362 6.55991783,2.01053747 6.45348383,2.019257 C4.46148462,3.42702482 2.87502068,5.3493538 1.898,7.58765668 L1.898,8.33900752 C1.898,8.33900752 2.38015688,8.47519565 2.46362069,8.60522561" id="Fill-149" fill="#307785"></path>
            <path d="M21.5607973,4.69320913 C21.4823487,4.74525199 21.3299356,4.87572639 21.3035047,4.96423074 C21.280503,5.04119332 21.3624335,5.27958322 21.3624335,5.27958322 C21.3624335,5.27958322 21.6144505,5.27465174 21.677125,5.32223529 C21.7777313,5.39846339 21.7498232,5.73359426 21.8673643,5.78201721 C22.0018402,5.83773245 22.2832951,5.49892921 22.4101213,5.56991106 C22.5488177,5.64739827 22.6048977,6.06804312 22.4997016,6.1855068 C22.4729014,6.21546292 22.3767793,6.18828732 22.3360515,6.1855068 C22.223575,6.1773751 22.0024732,6.12040076 21.8898912,6.12139754 C21.7645422,6.12255172 21.5014992,6.13718878 21.3953535,6.20177019 C21.2200442,6.30847905 21.0929015,6.75147295 20.9169592,6.85723749 C20.7696635,6.94574183 20.3560012,6.84291521 20.2329735,6.9610609 C20.1273553,7.06236612 20.051861,7.40914367 20.1339498,7.52928295 C20.1749943,7.58914273 20.3834345,7.53442428 20.4226852,7.59543824 C20.4740698,7.67444687 20.420786,7.90921685 20.3401215,7.96026292 C20.1947779,8.0522298 19.8332916,7.82648338 19.6599343,7.82784741 C19.5002409,7.82921143 19.0363018,7.96026292 19.0363018,7.96026292 C19.0363018,7.96026292 18.9149095,8.20725668 18.9048858,8.29681028 C18.8854187,8.47397636 18.9029866,8.85941883 19.012878,9.00232686 C19.0731785,9.08091578 19.2801943,9.14743831 19.3790596,9.16826595 C19.5289404,9.20011073 19.8387782,9.17178094 19.9917716,9.16464603 C20.095596,9.15966209 20.3228702,9.18872635 20.4055921,9.12807963 C20.4762856,9.07635154 20.5326821,8.80837275 20.5326821,8.80837275 C20.5326821,8.80837275 20.9315727,8.08202854 21.1803187,7.99205524 C21.2822439,7.95533144 21.5012882,8.1046399 21.6062205,8.07678228 C21.7426484,8.04084542 21.8902605,7.66998755 22.0257388,7.70896723 C22.0994921,7.73016211 22.0600304,7.93613014 22.1043457,7.99688179 C22.2849306,8.24293122 23.0846109,8.37487458 23.1372089,8.67249471 C23.146283,8.72291123 23.0593934,8.81514042 23.0115434,8.83696485 C22.9061363,8.88502056 22.6024181,8.71373029 22.5459689,8.81277961 C22.5082481,8.87846274 22.6597642,9.01733115 22.7246018,9.05893397 C22.7856408,9.09843828 22.9385814,9.12640082 23.0115434,9.11989547 C23.1022315,9.11213101 23.2970078,9.05777979 23.3468626,8.98401742 C23.4020984,8.90201843 23.2886723,8.67590478 23.3411649,8.59217452 C23.3627422,8.55770662 23.4829739,8.55964773 23.490096,8.51982864 C23.4976401,8.4781209 23.4048418,8.42261551 23.3704974,8.39664654 C23.2147607,8.27902547 22.8086953,8.17011318 22.6811833,8.02400494 C22.5938716,7.92369651 22.4217805,7.63635904 22.4997016,7.52928295 C22.5824235,7.41570149 22.9403224,7.47613837 23.0728462,7.52928295 C23.1321971,7.55283864 23.208219,7.66253786 23.2554886,7.70477023 C23.3750344,7.81189879 23.6781723,7.97469013 23.749024,8.11686368 C23.8051567,8.22918603 23.7201135,8.50057488 23.770021,8.61567775 C23.8421389,8.78256117 24.2811243,9.14318885 24.2811243,9.14318885 C24.2811243,9.14318885 24.3534004,8.56741219 24.4713108,8.41993992 C24.5332995,8.34266256 24.7359893,8.1873209 24.8253057,8.23249117 C24.9612588,8.30147945 24.8285239,8.68865318 24.8915677,8.82426891 C24.944324,8.93769298 25.119897,9.14287407 25.2377019,9.19224134 C25.374077,9.24911076 25.7855763,9.19995334 25.898,9.18494905 C25.1251199,7.26025491 23.8858211,5.5617269 22.3145269,4.219 C22.2858802,4.28106321 22.2176663,4.42161043 22.1707659,4.46121966 C22.0470523,4.56562017 21.6959063,4.60344568 21.5607973,4.69320913" id="Fill-150" fill="#307785"></path>
            <path d="M26.2900798,10.5132855 C26.0339686,10.6065369 25.4512524,10.594135 25.1899133,10.5132855 C24.9913638,10.4518567 24.7199542,10.0989052 24.5184331,10.0463953 C24.3478391,10.0022235 23.9325251,9.98802738 23.8132743,10.110621 C23.7412396,10.1849794 23.8896565,10.4421463 23.8132743,10.5132855 C23.7739827,10.5503327 23.6431756,10.5292232 23.5900163,10.5132855 C23.5194123,10.4922287 23.4161754,10.3816675 23.3488183,10.3524836 C23.0631558,10.2286234 22.3207415,10.2954878 22.1273098,10.0628607 C22.0057478,9.91672991 22.272645,9.44841479 22.1273098,9.32265471 C21.8420876,9.07614806 20.9513665,9.33342057 20.5787561,9.43564351 C20.4477839,9.47147696 20.2305241,9.64578898 20.0982862,9.6770311 C19.949154,9.71191461 19.637187,9.68394447 19.4834873,9.6770311 C19.4078756,9.67328415 19.2561019,9.63428428 19.1818109,9.64863877 C18.9728057,9.68895799 18.5437892,9.86432548 18.4358197,10.0363682 C18.336655,10.193476 18.5243085,10.6034232 18.4358197,10.7655445 C18.2214765,11.1571264 17.0672151,11.380307 16.9097733,11.7948456 C16.8689959,11.9021876 16.9397098,12.1652125 17.0363431,12.2344518 C17.097812,12.2784124 17.2960313,12.1789865 17.3453935,12.2344518 C17.4185288,12.3160402 17.3379644,12.5715184 17.2647741,12.6530012 C17.2275735,12.6945342 17.0802573,12.6834517 17.0468539,12.7277817 C16.878296,12.9513845 17.0363431,13.8218891 17.0363431,13.8218891 L18.3546499,15.2264123 C18.3546499,15.2264123 18.8103011,15.3023011 18.9281211,15.2264123 C18.9482072,15.2132189 18.942539,15.1534789 18.9629003,15.1406021 C19.1752073,15.0032317 19.7548969,15.2285233 19.9952144,15.1406021 C20.0894814,15.1059824 20.1984414,14.9177909 20.2927084,14.8833295 C20.4290186,14.8334583 20.7429116,14.8309779 20.8779561,14.8833295 C20.9827338,14.9240182 21.0963715,15.1378578 21.1987829,15.18356 C21.396562,15.2716395 21.9320072,15.1096238 22.0705185,15.2684731 C22.25465,15.4795157 21.9556152,16.3521313 21.9556152,16.3521313 L22.9242592,17.9503873 C22.9242592,17.9503873 22.4693784,18.6100604 22.4137978,18.86195 C22.390575,18.9674449 22.4002053,19.1935808 22.4484669,19.291318 C22.5076245,19.4118535 22.7964788,19.5431548 22.8510138,19.6657484 C22.9568372,19.9041279 22.8510138,20.6975827 22.8510138,20.6975827 C22.8510138,20.6975827 23.3077656,21.1649479 23.3770488,21.36095 C23.4489735,21.5645515 23.3770488,22.219 23.3770488,22.219 L23.8110181,22.219 C25.740767,20.0025511 26.898,17.1758783 26.898,14.0962076 C26.898,12.8374985 26.7037979,11.6213252 26.3436794,10.4714358 C26.3264549,10.4883235 26.3041126,10.508272 26.2900798,10.5132855" id="Fill-151" fill="#307785"></path>
            <path d="M19.2306008,5.02600709 C19.3396727,5.08632227 19.6022908,5.16707985 19.6723693,5.25950915 C19.7152777,5.31631607 19.7588125,5.47202909 19.7125372,5.52681201 C19.6419889,5.60959358 19.3186883,5.5334912 19.2381176,5.60939118 C19.1245043,5.71578608 19.059437,6.07254971 19.173755,6.17820248 C19.2699857,6.26698858 19.6022908,6.18407207 19.7447185,6.17820248 C19.9352224,6.17057874 20.3347872,6.19129101 20.503602,6.11680783 C20.6381997,6.05736971 20.9322944,5.84903271 20.8947104,5.72543381 C20.8669922,5.63442131 20.5697655,5.64305704 20.4784677,5.58915119 C20.4075279,5.54711947 20.3022144,5.42783843 20.2507713,5.36914245 C20.1539925,5.25903689 19.9678735,5.03059482 19.9074259,4.90342019 C19.8332758,4.74716744 19.9118107,4.33730756 19.7447185,4.24494572 C19.6076935,4.16877588 19.2364733,4.27705985 19.1003879,4.35444409 C19.0321886,4.39364221 18.9437096,4.52034457 18.9203763,4.58693415 C18.8982174,4.64967814 18.8837319,4.79075089 18.9203763,4.84836741 C18.9641459,4.91806045 19.1519876,4.98296337 19.2306008,5.02600709" id="Fill-152" fill="#307785"></path>
            <path d="M19.2617446,6.18177081 C19.434316,6.11966767 19.7632749,5.88604792 19.8530327,5.70786789 C19.8915414,5.63103857 19.9181703,5.43180211 19.8780547,5.35597231 C19.8394313,5.28300779 19.6768457,5.22816778 19.6020093,5.22037157 C19.5030117,5.2103098 19.2954325,5.25675388 19.2145127,5.32205547 C19.1039224,5.41134539 18.9641206,5.69580708 18.9267024,5.84340199 C18.9061568,5.92476243 18.873961,6.12193324 18.9267024,6.18177081 C18.9860435,6.24867162 19.1819152,6.21062345 19.2617446,6.18177081" id="Fill-153" fill="#307785"></path>
        </g>
    </g>
</svg>